<svg width="50" height="50" viewBox="0 0 50 50" fill="none" xmlns="http://www.w3.org/2000/svg">
<path d="M29.9999 39.9999H40V50H29.9999V39.9999Z" fill="#FAFAFA"/>
<path d="M20 39.9999H29.9999V50H20V39.9999Z" fill="#FAFAFA"/>
<path d="M9.99998 9.99998H20.0001V20.0001H9.99998V9.99998Z" fill="#FAFAFA"/>
<path d="M0 39.9999H10.0001V50H0V39.9999Z" fill="#FAFAFA"/>
<path d="M10.0001 39.9999H20V50H10.0001V39.9999Z" fill="#FAFAFA"/>
<path d="M0 0H10.0001L9.99998 9.99998L0 10.0001V0Z" fill="#FAFAFA"/>
<path d="M10.0001 0H20.0001V9.99998H9.99998L10.0001 0Z" fill="#FAFAFA"/>
<path d="M20.0001 0H30V10.0001L20.0001 9.99998V0Z" fill="#FAFAFA"/>
<path d="M30 0H40V10.0001H30V0Z" fill="#FAFAFA"/>
<path d="M40 0H50V10.0001H40V0Z" fill="#FAFAFA"/>
<path d="M29.9999 29.9999H40V39.9999H29.9999V29.9999Z" fill="#FAFAFA"/>
<path d="M9.99998 29.9999H20.0001L20 39.9999H10.0001L9.99998 29.9999Z" fill="#FAFAFA"/>
<path d="M20.0001 20.0001L30 20L29.9999 29.9999H20.0001V20.0001Z" fill="#FAFAFA"/>
<path d="M30 10.0001H40V20.0001L30 20V10.0001Z" fill="#FAFAFA"/>
<path d="M40 39.9999H50V50H40V39.9999Z" fill="#FAFAFA"/>
</svg>
