<svg width="50" height="50" viewBox="0 0 50 50" fill="none" xmlns="http://www.w3.org/2000/svg">
<path d="M0 10H10V20H0V10Z" fill="white"/>
<path d="M0 20H10V30H0V20Z" fill="white"/>
<path d="M0 30H10V40H0V30Z" fill="white"/>
<path d="M0 40H10V50H0V40Z" fill="white"/>
<path d="M10 0H20V10H10V0Z" fill="white"/>
<path d="M10 20H20V30H10V20Z" fill="white"/>
<path d="M10 30H20V40H10V30Z" fill="white"/>
<path d="M10 40H20V50H10V40Z" fill="white"/>
<path d="M20 0H30V10H20V0Z" fill="white"/>
<path d="M20 10H30V20H20V10Z" fill="white"/>
<path d="M20 30H30V40H20V30Z" fill="white"/>
<path d="M20 40H30V50H20V40Z" fill="white"/>
<path d="M30 0H40V10H30V0Z" fill="white"/>
<path d="M30 10H40V20H30V10Z" fill="white"/>
<path d="M30 20H40V30H30V20Z" fill="white"/>
<path d="M30 30H40V40H30V30Z" fill="white"/>
<path d="M30 40H40V50H30V40Z" fill="white"/>
<path d="M40 0H50V10H40V0Z" fill="white"/>
<path d="M40 10H50V20H40V10Z" fill="white"/>
<path d="M40 20H50V30H40V20Z" fill="white"/>
<path d="M40 30H50V40H40V30Z" fill="white"/>
</svg>
